<svg width="74" height="74" viewBox="0 0 74 74" fill="none" xmlns="http://www.w3.org/2000/svg">
<path d="M67.2727 0H6.72727C3.01045 0 0 3.01045 0 6.72727V67.2727C0 70.9895 3.01045 74 6.72727 74H40.3636V43.7273H30.2727V33.6364H40.3636V28.2175C40.3636 17.9585 45.362 13.4545 53.8888 13.4545C57.9723 13.4545 60.1317 13.7573 61.1543 13.8952V23.5455H55.3385C51.7193 23.5455 50.4545 25.456 50.4545 29.3242V33.6364H61.0635L59.6238 43.7273H50.4545V74H67.2727C70.9895 74 74 70.9895 74 67.2727V6.72727C74 3.01045 70.9862 0 67.2727 0Z" fill="#6DC5C6"/>
</svg>
