<svg width="74" height="74" viewBox="0 0 74 74" fill="none" xmlns="http://www.w3.org/2000/svg">
<path d="M21.5773 0C9.67873 0 0 9.68769 0 21.5894V52.4227C0 64.3213 9.68769 74 21.5894 74H52.4227C64.3213 74 74 64.3123 74 52.4106V21.5773C74 9.67873 64.3123 0 52.4106 0H21.5773ZM58.5833 12.3333C60.2853 12.3333 61.6667 13.7147 61.6667 15.4167C61.6667 17.1187 60.2853 18.5 58.5833 18.5C56.8813 18.5 55.5 17.1187 55.5 15.4167C55.5 13.7147 56.8813 12.3333 58.5833 12.3333ZM37 18.5C47.2027 18.5 55.5 26.7972 55.5 37C55.5 47.2027 47.2027 55.5 37 55.5C26.7972 55.5 18.5 47.2027 18.5 37C18.5 26.7972 26.7972 18.5 37 18.5ZM37 24.6667C33.729 24.6667 30.592 25.9661 28.279 28.279C25.9661 30.592 24.6667 33.729 24.6667 37C24.6667 40.271 25.9661 43.408 28.279 45.721C30.592 48.0339 33.729 49.3333 37 49.3333C40.271 49.3333 43.408 48.0339 45.721 45.721C48.0339 43.408 49.3333 40.271 49.3333 37C49.3333 33.729 48.0339 30.592 45.721 28.279C43.408 25.9661 40.271 24.6667 37 24.6667Z" fill="#846DC6"/>
</svg>
