<svg width="100" height="74" viewBox="0 0 100 74" fill="none" xmlns="http://www.w3.org/2000/svg">
<path d="M97.2086 12.7188C96.2842 7.63306 91.8796 3.92944 86.7682 2.77319C79.1191 1.15625 64.9628 0 49.6465 0C34.3393 0 19.9565 1.15625 12.2984 2.77319C7.19594 3.92944 2.78231 7.39819 1.85789 12.7188C0.924417 18.5 0 26.5938 0 37C0 47.4062 0.924417 55.5 2.08447 61.2812C3.01794 66.3669 7.42251 70.0706 12.5249 71.2268C20.6453 72.8438 34.5659 74 49.8822 74C65.1985 74 79.1191 72.8438 87.2394 71.2268C92.3419 70.0706 96.7464 66.6018 97.6799 61.2812C98.6043 55.5 99.7644 47.1714 100 37C99.5287 26.5938 98.3687 18.5 97.2086 12.7188ZM37.1216 53.1875V20.8125L65.425 37L37.1216 53.1875Z" fill="#F596CA"/>
</svg>
