<svg width="26" height="31" viewBox="0 0 26 31" fill="none" xmlns="http://www.w3.org/2000/svg">
<path d="M22.1926 22.1921L15.2977 29.087C14.6884 29.6958 13.8622 30.0378 13.0008 30.0378C12.1394 30.0378 11.3133 29.6958 10.7039 29.087L3.80738 22.1921C1.98936 20.374 0.751301 18.0577 0.249748 15.5359C-0.251805 13.0142 0.00567711 10.4004 0.989636 8.02496C1.97359 5.64956 3.63984 3.61928 5.77766 2.19085C7.91548 0.762419 10.4289 0 13 0C15.5711 0 18.0845 0.762419 20.2223 2.19085C22.3602 3.61928 24.0264 5.64956 25.0104 8.02496C25.9943 10.4004 26.2518 13.0142 25.7503 15.5359C25.2487 18.0577 24.0106 20.374 22.1926 22.1921Z" fill="#FBCD44"/>
<path d="M13 17.8745C15.6924 17.8745 17.875 15.6919 17.875 12.9995C17.875 10.3071 15.6924 8.12451 13 8.12451C10.3076 8.12451 8.125 10.3071 8.125 12.9995C8.125 15.6919 10.3076 17.8745 13 17.8745Z" fill="white"/>
</svg>
