<svg width="30" height="30" viewBox="0 0 30 30" fill="none" xmlns="http://www.w3.org/2000/svg">
<path d="M15 0C6.71572 0 0 6.71572 0 15C0 23.2843 6.71572 30 15 30C23.2843 30 30 23.2843 30 15C30 6.71572 23.2843 0 15 0ZM22.652 13.2811L14.8094 21.1237C14.367 21.5661 13.7667 21.8147 13.1409 21.8147C12.5152 21.8147 11.915 21.5661 11.4725 21.1236L7.34818 16.9993C6.42674 16.0778 6.42674 14.5839 7.34824 13.6624C8.26975 12.741 9.76371 12.7409 10.6852 13.6624L13.141 16.1184L19.3151 9.9443C20.2366 9.02285 21.7305 9.02285 22.6521 9.94436C23.5734 10.8656 23.5734 12.3596 22.652 13.2811Z" fill="#F596CA"/>
</svg>
