<svg width="132" height="45" viewBox="0 0 132 45" fill="none" xmlns="http://www.w3.org/2000/svg">
<path d="M22.5 31.1666C27.2864 31.1666 31.1666 27.2864 31.1666 22.5C31.1666 17.7135 27.2864 13.8333 22.5 13.8333C17.7135 13.8333 13.8333 17.7135 13.8333 22.5C13.8333 27.2864 17.7135 31.1666 22.5 31.1666Z" stroke="white" stroke-width="4.33333" stroke-linecap="round" stroke-linejoin="round"/>
<path d="M10.15 34.85L8.63333 36.3667M3 22.5H5.16667H3ZM22.5 3V5.16667V3ZM39.8333 22.5H42H39.8333ZM22.5 39.8333V42V39.8333ZM8.63333 8.63333L10.15 10.15L8.63333 8.63333ZM36.3667 8.63333L34.85 10.15L36.3667 8.63333ZM34.85 34.85L36.3667 36.3667L34.85 34.85Z" stroke="white" stroke-width="4.33333" stroke-linecap="round" stroke-linejoin="round"/>
<path d="M53.1162 29C52.8228 29 52.5762 28.9 52.3762 28.7C52.1762 28.5 52.0762 28.2533 52.0762 27.96V14.42C52.0762 14.1133 52.1762 13.8667 52.3762 13.68C52.5762 13.48 52.8228 13.38 53.1162 13.38C53.4228 13.38 53.6695 13.48 53.8562 13.68C54.0562 13.8667 54.1562 14.1133 54.1562 14.42V27.16H60.1562V14.42C60.1562 14.1133 60.2562 13.8667 60.4562 13.68C60.6562 13.48 60.9028 13.38 61.1962 13.38C61.5028 13.38 61.7495 13.48 61.9362 13.68C62.1362 13.8667 62.2362 14.1133 62.2362 14.42V27.16H68.2362V14.42C68.2362 14.1133 68.3362 13.8667 68.5362 13.68C68.7362 13.48 68.9828 13.38 69.2762 13.38C69.5828 13.38 69.8295 13.48 70.0162 13.68C70.2028 13.8667 70.2962 14.1133 70.2962 14.42V27.96C70.2962 28.2533 70.2028 28.5 70.0162 28.7C69.8295 28.9 69.5828 29 69.2762 29H53.1162ZM71.3562 32.56C71.0628 32.56 70.8162 32.46 70.6162 32.26C70.4162 32.06 70.3162 31.8133 70.3162 31.52V29H68.2362V27.16H71.3562C71.6628 27.16 71.9095 27.26 72.0962 27.46C72.2962 27.6467 72.3962 27.8933 72.3962 28.2V31.52C72.3962 31.8133 72.2962 32.06 72.0962 32.26C71.9095 32.46 71.6628 32.56 71.3562 32.56ZM79.4635 29.08C78.4902 29.08 77.6168 28.84 76.8435 28.36C76.0702 27.8667 75.4568 27.2067 75.0035 26.38C74.5635 25.54 74.3435 24.5933 74.3435 23.54C74.3435 22.4867 74.5835 21.54 75.0635 20.7C75.5568 19.86 76.2168 19.2 77.0435 18.72C77.8835 18.2267 78.8235 17.98 79.8635 17.98C80.9035 17.98 81.8368 18.2267 82.6635 18.72C83.4902 19.2 84.1435 19.86 84.6235 20.7C85.1168 21.54 85.3635 22.4867 85.3635 23.54H84.5835C84.5835 24.5933 84.3568 25.54 83.9035 26.38C83.4635 27.2067 82.8568 27.8667 82.0835 28.36C81.3102 28.84 80.4368 29.08 79.4635 29.08ZM79.8635 27.28C80.5435 27.28 81.1502 27.12 81.6835 26.8C82.2168 26.4667 82.6368 26.02 82.9435 25.46C83.2502 24.8867 83.4035 24.2467 83.4035 23.54C83.4035 22.82 83.2502 22.18 82.9435 21.62C82.6368 21.0467 82.2168 20.6 81.6835 20.28C81.1502 19.9467 80.5435 19.78 79.8635 19.78C79.1968 19.78 78.5902 19.9467 78.0435 20.28C77.5102 20.6 77.0835 21.0467 76.7635 21.62C76.4568 22.18 76.3035 22.82 76.3035 23.54C76.3035 24.2467 76.4568 24.8867 76.7635 25.46C77.0835 26.02 77.5102 26.4667 78.0435 26.8C78.5902 27.12 79.1968 27.28 79.8635 27.28ZM84.3435 29.02C84.0502 29.02 83.8035 28.9267 83.6035 28.74C83.4168 28.54 83.3235 28.2933 83.3235 28V24.94L83.7035 22.82L85.3635 23.54V28C85.3635 28.2933 85.2635 28.54 85.0635 28.74C84.8768 28.9267 84.6368 29.02 84.3435 29.02ZM93.3596 29.08C92.2929 29.08 91.3396 28.84 90.4996 28.36C89.6729 27.8667 89.0196 27.2067 88.5396 26.38C88.0729 25.54 87.8396 24.5933 87.8396 23.54C87.8396 22.46 88.0729 21.5 88.5396 20.66C89.0063 19.82 89.6463 19.1667 90.4596 18.7C91.2729 18.22 92.2063 17.98 93.2596 17.98C94.0463 17.98 94.7663 18.1333 95.4196 18.44C96.0729 18.7333 96.6596 19.18 97.1796 19.78C97.3663 19.9933 97.4329 20.2133 97.3796 20.44C97.3263 20.6667 97.1796 20.8667 96.9396 21.04C96.7529 21.1733 96.5463 21.22 96.3196 21.18C96.0929 21.1267 95.8863 21.0067 95.6996 20.82C95.0463 20.1267 94.2329 19.78 93.2596 19.78C92.5796 19.78 91.9796 19.94 91.4596 20.26C90.9396 20.5667 90.5329 21 90.2396 21.56C89.9463 22.12 89.7996 22.78 89.7996 23.54C89.7996 24.26 89.9463 24.9 90.2396 25.46C90.5463 26.02 90.9663 26.4667 91.4996 26.8C92.0329 27.12 92.6529 27.28 93.3596 27.28C93.8263 27.28 94.2329 27.2267 94.5796 27.12C94.9396 27 95.2663 26.82 95.5596 26.58C95.7729 26.4067 95.9929 26.3133 96.2196 26.3C96.4463 26.2733 96.6463 26.3333 96.8196 26.48C97.0463 26.6667 97.1729 26.88 97.1996 27.12C97.2263 27.3467 97.1463 27.5533 96.9596 27.74C95.9996 28.6333 94.7996 29.08 93.3596 29.08ZM114.771 29.02C114.478 29.02 114.231 28.9267 114.031 28.74C113.845 28.54 113.751 28.2933 113.751 28V22.28C113.751 21.44 113.545 20.82 113.131 20.42C112.718 20.0067 112.178 19.8 111.511 19.8C110.818 19.8 110.245 20.04 109.791 20.52C109.351 21 109.131 21.6133 109.131 22.36H107.471C107.471 21.4933 107.658 20.7333 108.031 20.08C108.405 19.4133 108.925 18.8933 109.591 18.52C110.271 18.1467 111.045 17.96 111.911 17.96C112.671 17.96 113.345 18.1267 113.931 18.46C114.518 18.7933 114.971 19.2867 115.291 19.94C115.625 20.58 115.791 21.36 115.791 22.28V28C115.791 28.2933 115.698 28.54 115.511 28.74C115.325 28.9267 115.078 29.02 114.771 29.02ZM101.431 29.02C101.138 29.02 100.891 28.9267 100.691 28.74C100.505 28.54 100.411 28.2933 100.411 28V19.1C100.411 18.7933 100.505 18.5467 100.691 18.36C100.891 18.1733 101.138 18.08 101.431 18.08C101.738 18.08 101.985 18.1733 102.171 18.36C102.358 18.5467 102.451 18.7933 102.451 19.1V28C102.451 28.2933 102.358 28.54 102.171 28.74C101.985 28.9267 101.738 29.02 101.431 29.02ZM108.111 29.02C107.818 29.02 107.571 28.9267 107.371 28.74C107.185 28.54 107.091 28.2933 107.091 28V22.28C107.091 21.44 106.885 20.82 106.471 20.42C106.058 20.0067 105.518 19.8 104.851 19.8C104.158 19.8 103.585 20.04 103.131 20.52C102.678 21 102.451 21.6133 102.451 22.36H101.191C101.191 21.4933 101.365 20.7333 101.711 20.08C102.058 19.4133 102.538 18.8933 103.151 18.52C103.765 18.1467 104.465 17.96 105.251 17.96C106.011 17.96 106.685 18.1267 107.271 18.46C107.858 18.7933 108.311 19.2867 108.631 19.94C108.965 20.58 109.131 21.36 109.131 22.28V28C109.131 28.2933 109.038 28.54 108.851 28.74C108.665 28.9267 108.418 29.02 108.111 29.02ZM126.101 29C125.821 29 125.588 28.9067 125.401 28.72C125.214 28.52 125.121 28.2733 125.121 27.98V25.34H122.301V25.08C121.594 25.08 120.968 24.94 120.421 24.66C119.874 24.38 119.448 23.9933 119.141 23.5C118.834 23.0067 118.681 22.4333 118.681 21.78C118.681 21.0733 118.848 20.44 119.181 19.88C119.528 19.32 119.994 18.88 120.581 18.56C121.181 18.2267 121.868 18.06 122.641 18.06H126.101C126.408 18.06 126.654 18.1533 126.841 18.34C127.028 18.5267 127.121 18.7733 127.121 19.08V28C127.108 28.2933 127.008 28.5333 126.821 28.72C126.648 28.9067 126.408 29 126.101 29ZM119.001 28.76C118.788 28.5733 118.688 28.3667 118.701 28.14C118.714 27.9133 118.794 27.7067 118.941 27.52L121.381 24.34H124.041L120.621 28.6C120.394 28.8933 120.114 29.0333 119.781 29.02C119.448 29.0067 119.188 28.92 119.001 28.76ZM122.641 23.66H125.121V19.96H122.641C122.108 19.96 121.641 20.1333 121.241 20.48C120.841 20.8133 120.641 21.2467 120.641 21.78C120.641 22.34 120.841 22.7933 121.241 23.14C121.641 23.4867 122.108 23.66 122.641 23.66Z" fill="white"/>
</svg>
